<mxfile host="app.diagrams.net" modified="2022-09-12T10:19:50.140Z" agent="5.0 (Macintosh; Intel Mac OS X 10_15_7) AppleWebKit/537.36 (KHTML, like Gecko) Chrome/103.0.5060.134 Safari/537.36 OPR/89.0.4447.83" etag="dg4ecwJazKnNykW-8thx" version="20.2.3" type="github">
  <diagram id="6a731a19-8d31-9384-78a2-239565b7b9f0" name="Page-1">
    <mxGraphModel dx="1713" dy="798" grid="1" gridSize="10" guides="1" tooltips="1" connect="1" arrows="1" fold="1" page="1" pageScale="1" pageWidth="1169" pageHeight="827" background="none" math="0" shadow="0">
      <root>
        <mxCell id="0" />
        <mxCell id="1" parent="0" />
        <mxCell id="tZK1ywAeQsJ68GABahhb-1782" value="" style="edgeStyle=none;rounded=1;jumpStyle=none;html=1;shadow=0;labelBackgroundColor=none;startArrow=none;startFill=0;jettySize=auto;orthogonalLoop=1;strokeColor=#82b366;strokeWidth=3;fontFamily=Comic Sans MS;fontSize=18;fontColor=#FFFFFF;spacing=5;fontStyle=1;fillColor=#d5e8d4;sketch=1;entryX=0.25;entryY=1;entryDx=0;entryDy=0;exitX=0.948;exitY=0.039;exitDx=0;exitDy=0;exitPerimeter=0;" edge="1" parent="1" source="1771" target="tZK1ywAeQsJ68GABahhb-1781">
          <mxGeometry relative="1" as="geometry">
            <mxPoint x="908.0331753554501" y="254.5" as="sourcePoint" />
            <mxPoint x="912.1563981042655" y="211" as="targetPoint" />
          </mxGeometry>
        </mxCell>
        <mxCell id="1745" value="" style="edgeStyle=none;rounded=0;jumpStyle=none;html=1;shadow=0;labelBackgroundColor=none;startArrow=none;startFill=0;endArrow=classic;endFill=1;jettySize=auto;orthogonalLoop=1;strokeColor=#000000;strokeWidth=3;fontFamily=Comic Sans MS;fontSize=18;fontColor=#23445D;spacing=5;sketch=1;" parent="1" source="1749" target="1764" edge="1">
          <mxGeometry relative="1" as="geometry" />
        </mxCell>
        <mxCell id="1746" value="" style="edgeStyle=none;rounded=0;jumpStyle=none;html=1;shadow=0;labelBackgroundColor=none;startArrow=none;startFill=0;endArrow=classic;endFill=1;jettySize=auto;orthogonalLoop=1;strokeColor=#000000;strokeWidth=3;fontFamily=Comic Sans MS;fontSize=18;fontColor=#23445D;spacing=5;sketch=1;" parent="1" source="1749" target="1771" edge="1">
          <mxGeometry relative="1" as="geometry" />
        </mxCell>
        <mxCell id="1747" value="" style="edgeStyle=none;rounded=0;jumpStyle=none;html=1;shadow=0;labelBackgroundColor=none;startArrow=none;startFill=0;endArrow=classic;endFill=1;jettySize=auto;orthogonalLoop=1;strokeColor=#000000;strokeWidth=3;fontFamily=Comic Sans MS;fontSize=18;fontColor=#23445D;spacing=5;sketch=1;exitX=1;exitY=1;exitDx=0;exitDy=0;" parent="1" source="1749" target="1760" edge="1">
          <mxGeometry relative="1" as="geometry" />
        </mxCell>
        <mxCell id="1748" value="" style="edgeStyle=none;rounded=0;jumpStyle=none;html=1;shadow=0;labelBackgroundColor=none;startArrow=none;startFill=0;endArrow=classic;endFill=1;jettySize=auto;orthogonalLoop=1;strokeColor=#000000;strokeWidth=3;fontFamily=Comic Sans MS;fontSize=18;fontColor=#23445D;spacing=5;sketch=1;exitX=0;exitY=0.25;exitDx=0;exitDy=0;" parent="1" source="1749" target="1753" edge="1">
          <mxGeometry relative="1" as="geometry" />
        </mxCell>
        <mxCell id="1749" value="Standard-Datentypen" style="rounded=1;whiteSpace=wrap;html=1;shadow=0;labelBackgroundColor=none;strokeWidth=3;fontFamily=Comic Sans MS;fontSize=18;align=center;fontStyle=1;spacing=5;arcSize=7;perimeterSpacing=2;sketch=1;fillStyle=solid;" parent="1" vertex="1">
          <mxGeometry x="530" y="330" width="150" height="70" as="geometry" />
        </mxCell>
        <mxCell id="1753" value="Spezieller&lt;br&gt;Wert" style="rounded=1;whiteSpace=wrap;html=1;shadow=0;labelBackgroundColor=none;strokeColor=#b85450;strokeWidth=1;fillColor=#f8cecc;fontFamily=Comic Sans MS;fontSize=18;align=center;spacing=5;fontStyle=1;arcSize=7;perimeterSpacing=0;sketch=1;fillStyle=solid;" parent="1" vertex="1">
          <mxGeometry x="280" y="290" width="150" height="60" as="geometry" />
        </mxCell>
        <mxCell id="1757" value="" style="edgeStyle=none;rounded=0;jumpStyle=none;html=1;shadow=0;labelBackgroundColor=none;startArrow=none;startFill=0;endArrow=classic;endFill=1;jettySize=auto;orthogonalLoop=1;strokeColor=#6c8ebf;strokeWidth=1;fontFamily=Comic Sans MS;fontSize=18;fontColor=#FFFFFF;spacing=5;sketch=1;fillColor=#dae8fc;" parent="1" source="1760" target="1763" edge="1">
          <mxGeometry relative="1" as="geometry" />
        </mxCell>
        <mxCell id="1759" value="" style="edgeStyle=none;rounded=0;jumpStyle=none;html=1;shadow=0;labelBackgroundColor=none;startArrow=none;startFill=0;endArrow=classic;endFill=1;jettySize=auto;orthogonalLoop=1;strokeColor=#6c8ebf;strokeWidth=1;fontFamily=Comic Sans MS;fontSize=18;fontColor=#FFFFFF;spacing=5;sketch=1;fillColor=#dae8fc;" parent="1" source="1760" target="1761" edge="1">
          <mxGeometry relative="1" as="geometry" />
        </mxCell>
        <mxCell id="1760" value="Mengen" style="rounded=1;whiteSpace=wrap;html=1;shadow=0;labelBackgroundColor=none;strokeColor=#6c8ebf;strokeWidth=1;fillColor=#dae8fc;fontFamily=Comic Sans MS;fontSize=18;align=center;spacing=5;fontStyle=1;arcSize=7;perimeterSpacing=0;sketch=1;" parent="1" vertex="1">
          <mxGeometry x="745" y="470.5" width="150" height="60" as="geometry" />
        </mxCell>
        <mxCell id="1761" value="Frozen Set" style="rounded=1;whiteSpace=wrap;html=1;shadow=0;labelBackgroundColor=none;strokeColor=#6c8ebf;strokeWidth=1;fillColor=#dae8fc;fontFamily=Comic Sans MS;fontSize=18;align=center;spacing=5;arcSize=7;perimeterSpacing=0;sketch=1;" parent="1" vertex="1">
          <mxGeometry x="935" y="510.5" width="150" height="60" as="geometry" />
        </mxCell>
        <mxCell id="1763" value="Set { }" style="rounded=1;whiteSpace=wrap;html=1;shadow=0;labelBackgroundColor=none;strokeColor=#6c8ebf;strokeWidth=1;fillColor=#dae8fc;fontFamily=Comic Sans MS;fontSize=18;align=center;spacing=5;arcSize=7;perimeterSpacing=0;sketch=1;" parent="1" vertex="1">
          <mxGeometry x="720" y="560" width="150" height="60" as="geometry" />
        </mxCell>
        <mxCell id="1764" value="Numerisch" style="rounded=1;whiteSpace=wrap;html=1;shadow=0;labelBackgroundColor=none;strokeColor=#D79B00;strokeWidth=3;fillColor=#ffe6cc;fontFamily=Comic Sans MS;fontSize=18;align=center;spacing=5;fontStyle=1;arcSize=7;perimeterSpacing=2;sketch=1;fillStyle=solid;" parent="1" vertex="1">
          <mxGeometry x="500" y="186.5" width="150" height="60" as="geometry" />
        </mxCell>
        <mxCell id="1765" value="Complex" style="rounded=1;whiteSpace=wrap;html=1;shadow=0;labelBackgroundColor=none;strokeColor=#D79B00;strokeWidth=1;fillColor=#ffe6cc;fontFamily=Comic Sans MS;fontSize=18;align=center;spacing=5;arcSize=7;perimeterSpacing=0;sketch=1;" parent="1" vertex="1">
          <mxGeometry x="650" y="100" width="150" height="60" as="geometry" />
        </mxCell>
        <mxCell id="1766" value="" style="edgeStyle=none;rounded=0;jumpStyle=none;html=1;shadow=0;labelBackgroundColor=none;startArrow=none;startFill=0;endArrow=classic;endFill=1;jettySize=auto;orthogonalLoop=1;strokeColor=#D79B00;strokeWidth=3;fontFamily=Comic Sans MS;fontSize=18;fontColor=#FFFFFF;spacing=5;sketch=1;fillColor=#ffe6cc;" parent="1" source="1764" target="1765" edge="1">
          <mxGeometry relative="1" as="geometry" />
        </mxCell>
        <mxCell id="1767" value="Float" style="rounded=1;whiteSpace=wrap;html=1;shadow=0;labelBackgroundColor=none;strokeColor=#D79B00;strokeWidth=1;fillColor=#ffe6cc;fontFamily=Comic Sans MS;fontSize=18;align=center;spacing=5;arcSize=7;perimeterSpacing=0;sketch=1;" parent="1" vertex="1">
          <mxGeometry x="480" y="55.5" width="150" height="60" as="geometry" />
        </mxCell>
        <mxCell id="1768" value="" style="edgeStyle=none;rounded=0;jumpStyle=none;html=1;shadow=0;labelBackgroundColor=none;startArrow=none;startFill=0;endArrow=classic;endFill=1;jettySize=auto;orthogonalLoop=1;strokeColor=#D79B00;strokeWidth=3;fontFamily=Comic Sans MS;fontSize=18;fontColor=#FFFFFF;spacing=5;sketch=1;fillColor=#ffe6cc;" parent="1" source="1764" target="1767" edge="1">
          <mxGeometry relative="1" as="geometry" />
        </mxCell>
        <mxCell id="1769" value="Integer" style="rounded=1;whiteSpace=wrap;html=1;shadow=0;labelBackgroundColor=none;strokeColor=#D79B00;strokeWidth=1;fillColor=#ffe6cc;fontFamily=Comic Sans MS;fontSize=18;align=center;spacing=5;arcSize=7;perimeterSpacing=0;sketch=1;" parent="1" vertex="1">
          <mxGeometry x="310" y="110" width="150" height="60" as="geometry" />
        </mxCell>
        <mxCell id="1770" value="" style="edgeStyle=none;rounded=0;jumpStyle=none;html=1;shadow=0;labelBackgroundColor=none;startArrow=none;startFill=0;endArrow=classic;endFill=1;jettySize=auto;orthogonalLoop=1;strokeColor=#D79B00;strokeWidth=3;fontFamily=Comic Sans MS;fontSize=18;fontColor=#FFFFFF;spacing=5;sketch=1;fillColor=#ffe6cc;" parent="1" source="1764" target="1769" edge="1">
          <mxGeometry relative="1" as="geometry" />
        </mxCell>
        <mxCell id="1771" value="Sequenziell" style="rounded=1;whiteSpace=wrap;html=1;shadow=0;labelBackgroundColor=none;strokeColor=#82b366;strokeWidth=3;fillColor=#d5e8d4;fontFamily=Comic Sans MS;fontSize=18;align=center;spacing=5;fontStyle=1;arcSize=7;perimeterSpacing=2;sketch=1;fillStyle=solid;" parent="1" vertex="1">
          <mxGeometry x="820" y="246.4999999999999" width="150" height="60" as="geometry" />
        </mxCell>
        <mxCell id="1772" value="Lists [ ]" style="rounded=1;whiteSpace=wrap;html=1;shadow=0;labelBackgroundColor=none;strokeColor=#82b366;strokeWidth=1;fillColor=#d5e8d4;fontFamily=Comic Sans MS;fontSize=18;align=center;spacing=5;fontStyle=0;arcSize=7;perimeterSpacing=0;sketch=1;" parent="1" vertex="1">
          <mxGeometry x="804" y="365.5" width="150" height="60" as="geometry" />
        </mxCell>
        <mxCell id="1773" value="" style="edgeStyle=none;rounded=1;jumpStyle=none;html=1;shadow=0;labelBackgroundColor=none;startArrow=none;startFill=0;jettySize=auto;orthogonalLoop=1;strokeColor=#82b366;strokeWidth=3;fontFamily=Comic Sans MS;fontSize=18;fontColor=#FFFFFF;spacing=5;fontStyle=1;fillColor=#d5e8d4;sketch=1;" parent="1" source="1771" target="1772" edge="1">
          <mxGeometry relative="1" as="geometry" />
        </mxCell>
        <mxCell id="1774" value="Bytes b&#39;&#39;" style="rounded=1;whiteSpace=wrap;html=1;shadow=0;labelBackgroundColor=none;strokeColor=#82b366;strokeWidth=1;fillColor=#d5e8d4;fontFamily=Comic Sans MS;fontSize=18;align=center;spacing=5;fontStyle=0;arcSize=7;perimeterSpacing=0;sketch=1;" parent="1" vertex="1">
          <mxGeometry x="1040" y="221" width="150" height="60" as="geometry" />
        </mxCell>
        <mxCell id="1775" value="" style="edgeStyle=none;rounded=1;jumpStyle=none;html=1;shadow=0;labelBackgroundColor=none;startArrow=none;startFill=0;jettySize=auto;orthogonalLoop=1;strokeColor=#82b366;strokeWidth=3;fontFamily=Comic Sans MS;fontSize=18;fontColor=#FFFFFF;spacing=5;fontStyle=1;fillColor=#d5e8d4;sketch=1;exitX=1;exitY=0.5;exitDx=0;exitDy=0;" parent="1" source="1771" target="1774" edge="1">
          <mxGeometry relative="1" as="geometry" />
        </mxCell>
        <mxCell id="1776" value="Tuple ( )" style="rounded=1;whiteSpace=wrap;html=1;shadow=0;labelBackgroundColor=none;strokeColor=#82b366;strokeWidth=1;fillColor=#d5e8d4;fontFamily=Comic Sans MS;fontSize=18;align=center;spacing=5;fontStyle=0;arcSize=7;perimeterSpacing=0;sketch=1;" parent="1" vertex="1">
          <mxGeometry x="1015" y="141" width="150" height="60" as="geometry" />
        </mxCell>
        <mxCell id="1777" value="" style="edgeStyle=none;rounded=1;jumpStyle=none;html=1;shadow=0;labelBackgroundColor=none;startArrow=none;startFill=0;jettySize=auto;orthogonalLoop=1;strokeColor=#82b366;strokeWidth=3;fontFamily=Comic Sans MS;fontSize=18;fontColor=#FFFFFF;spacing=5;fontStyle=1;fillColor=#d5e8d4;sketch=1;exitX=1;exitY=0.25;exitDx=0;exitDy=0;" parent="1" source="1771" target="1776" edge="1">
          <mxGeometry relative="1" as="geometry" />
        </mxCell>
        <mxCell id="1779" value="" style="edgeStyle=none;rounded=1;jumpStyle=none;html=1;shadow=0;labelBackgroundColor=none;startArrow=none;startFill=0;jettySize=auto;orthogonalLoop=1;strokeColor=#82b366;strokeWidth=3;fontFamily=Comic Sans MS;fontSize=18;fontColor=#FFFFFF;spacing=5;fontStyle=1;fillColor=#d5e8d4;sketch=1;exitX=0.461;exitY=0.023;exitDx=0;exitDy=0;exitPerimeter=0;" parent="1" source="1771" target="1778" edge="1">
          <mxGeometry relative="1" as="geometry">
            <mxPoint x="920" y="241" as="sourcePoint" />
          </mxGeometry>
        </mxCell>
        <mxCell id="X-NRlNJ1EieBE7V-gmd9-1781" value="Byte Array" style="rounded=1;whiteSpace=wrap;html=1;shadow=0;labelBackgroundColor=none;strokeColor=#82b366;strokeWidth=1;fillColor=#d5e8d4;fontFamily=Comic Sans MS;fontSize=18;align=center;spacing=5;fontStyle=0;arcSize=7;perimeterSpacing=0;sketch=1;" parent="1" vertex="1">
          <mxGeometry x="1015" y="305.5" width="150" height="60" as="geometry" />
        </mxCell>
        <mxCell id="X-NRlNJ1EieBE7V-gmd9-1782" value="" style="edgeStyle=none;rounded=1;jumpStyle=none;html=1;shadow=0;labelBackgroundColor=none;startArrow=none;startFill=0;jettySize=auto;orthogonalLoop=1;strokeColor=#82b366;strokeWidth=3;fontFamily=Comic Sans MS;fontSize=18;fontColor=#FFFFFF;spacing=5;fontStyle=1;fillColor=#d5e8d4;sketch=1;exitX=1;exitY=1;exitDx=0;exitDy=0;entryX=0;entryY=0.5;entryDx=0;entryDy=0;" parent="1" source="1771" target="X-NRlNJ1EieBE7V-gmd9-1781" edge="1">
          <mxGeometry relative="1" as="geometry">
            <mxPoint x="957" y="351.6500000000001" as="sourcePoint" />
          </mxGeometry>
        </mxCell>
        <mxCell id="X-NRlNJ1EieBE7V-gmd9-1783" value="" style="edgeStyle=none;rounded=0;jumpStyle=none;html=1;shadow=0;labelBackgroundColor=none;startArrow=none;startFill=0;endArrow=classic;endFill=1;jettySize=auto;orthogonalLoop=1;strokeColor=#000000;strokeWidth=3;fontFamily=Comic Sans MS;fontSize=18;fontColor=#23445D;spacing=5;sketch=1;exitX=0.013;exitY=0.919;exitDx=0;exitDy=0;entryX=1;entryY=0.25;entryDx=0;entryDy=0;exitPerimeter=0;" parent="1" source="1749" target="X-NRlNJ1EieBE7V-gmd9-1784" edge="1">
          <mxGeometry relative="1" as="geometry">
            <mxPoint x="523" y="578.5" as="sourcePoint" />
          </mxGeometry>
        </mxCell>
        <mxCell id="X-NRlNJ1EieBE7V-gmd9-1784" value="Mappings" style="rounded=1;whiteSpace=wrap;html=1;shadow=0;labelBackgroundColor=none;strokeColor=#9673a6;strokeWidth=1;fillColor=#e1d5e7;fontFamily=Comic Sans MS;fontSize=18;align=center;spacing=5;fontStyle=1;arcSize=7;perimeterSpacing=0;sketch=1;fillStyle=solid;" parent="1" vertex="1">
          <mxGeometry x="240" y="460" width="150" height="60" as="geometry" />
        </mxCell>
        <mxCell id="X-NRlNJ1EieBE7V-gmd9-1785" value="Dictionary {k: v}" style="rounded=1;whiteSpace=wrap;html=1;shadow=0;labelBackgroundColor=none;strokeColor=#9673a6;strokeWidth=1;fillColor=#e1d5e7;fontFamily=Comic Sans MS;fontSize=18;align=center;spacing=5;arcSize=7;perimeterSpacing=0;sketch=1;" parent="1" vertex="1">
          <mxGeometry x="150" y="540" width="150" height="60" as="geometry" />
        </mxCell>
        <mxCell id="X-NRlNJ1EieBE7V-gmd9-1786" value="" style="edgeStyle=none;rounded=0;jumpStyle=none;html=1;shadow=0;labelBackgroundColor=none;startArrow=none;startFill=0;endArrow=classic;endFill=1;jettySize=auto;orthogonalLoop=1;strokeColor=#9673a6;strokeWidth=3;fontFamily=Comic Sans MS;fontSize=18;fontColor=#FFFFFF;spacing=5;sketch=1;fillColor=#e1d5e7;entryX=0.5;entryY=0;entryDx=0;entryDy=0;exitX=0.25;exitY=1;exitDx=0;exitDy=0;" parent="1" source="X-NRlNJ1EieBE7V-gmd9-1784" target="X-NRlNJ1EieBE7V-gmd9-1785" edge="1">
          <mxGeometry relative="1" as="geometry">
            <mxPoint x="303.8888888888889" y="644" as="sourcePoint" />
          </mxGeometry>
        </mxCell>
        <mxCell id="X-NRlNJ1EieBE7V-gmd9-1787" value="Boolean" style="rounded=1;whiteSpace=wrap;html=1;shadow=0;labelBackgroundColor=none;strokeColor=#d6b656;strokeWidth=1;fillColor=#fff2cc;fontFamily=Comic Sans MS;fontSize=18;align=center;spacing=5;fontStyle=1;arcSize=7;perimeterSpacing=0;sketch=1;fillStyle=solid;" parent="1" vertex="1">
          <mxGeometry x="480" y="510.5" width="150" height="60" as="geometry" />
        </mxCell>
        <mxCell id="X-NRlNJ1EieBE7V-gmd9-1788" value="" style="edgeStyle=none;rounded=0;jumpStyle=none;html=1;shadow=0;labelBackgroundColor=none;startArrow=none;startFill=0;endArrow=classic;endFill=1;jettySize=auto;orthogonalLoop=1;strokeColor=#000000;strokeWidth=3;fontFamily=Comic Sans MS;fontSize=18;fontColor=#23445D;spacing=5;sketch=1;exitX=0.455;exitY=0.973;exitDx=0;exitDy=0;entryX=0.5;entryY=0;entryDx=0;entryDy=0;exitPerimeter=0;" parent="1" source="1749" target="X-NRlNJ1EieBE7V-gmd9-1787" edge="1">
          <mxGeometry relative="1" as="geometry">
            <mxPoint x="505.00199999999995" y="420.0060000000001" as="sourcePoint" />
            <mxPoint x="370" y="475.5" as="targetPoint" />
          </mxGeometry>
        </mxCell>
        <mxCell id="X-NRlNJ1EieBE7V-gmd9-1789" value="None" style="rounded=1;whiteSpace=wrap;html=1;shadow=0;labelBackgroundColor=none;strokeColor=#b85450;strokeWidth=1;fillColor=#f8cecc;fontFamily=Comic Sans MS;fontSize=18;align=center;spacing=5;fontStyle=0;arcSize=7;perimeterSpacing=0;sketch=1;fillStyle=hachure;" parent="1" vertex="1">
          <mxGeometry x="160" y="201" width="150" height="60" as="geometry" />
        </mxCell>
        <mxCell id="X-NRlNJ1EieBE7V-gmd9-1790" value="Ellipsis ..." style="rounded=1;whiteSpace=wrap;html=1;shadow=0;labelBackgroundColor=none;strokeColor=#b85450;strokeWidth=1;fillColor=#f8cecc;fontFamily=Comic Sans MS;fontSize=18;align=center;spacing=5;fontStyle=0;arcSize=7;perimeterSpacing=0;sketch=1;fillStyle=hachure;" parent="1" vertex="1">
          <mxGeometry x="100" y="284" width="150" height="60" as="geometry" />
        </mxCell>
        <mxCell id="X-NRlNJ1EieBE7V-gmd9-1791" value="NotImplemented" style="rounded=1;whiteSpace=wrap;html=1;shadow=0;labelBackgroundColor=none;strokeColor=#b85450;strokeWidth=1;fillColor=#f8cecc;fontFamily=Comic Sans MS;fontSize=18;align=center;spacing=5;fontStyle=0;arcSize=7;perimeterSpacing=0;sketch=1;fillStyle=hachure;" parent="1" vertex="1">
          <mxGeometry x="110" y="365.5" width="160" height="60" as="geometry" />
        </mxCell>
        <mxCell id="X-NRlNJ1EieBE7V-gmd9-1793" value="" style="edgeStyle=none;rounded=0;jumpStyle=none;html=1;shadow=0;labelBackgroundColor=none;startArrow=none;startFill=0;endArrow=classic;endFill=1;jettySize=auto;orthogonalLoop=1;strokeColor=#b85450;strokeWidth=3;fontFamily=Comic Sans MS;fontSize=18;fontColor=#FFFFFF;spacing=5;sketch=1;fillColor=#f8cecc;entryX=1;entryY=0.25;entryDx=0;entryDy=0;exitX=0.25;exitY=1;exitDx=0;exitDy=0;" parent="1" source="1753" target="X-NRlNJ1EieBE7V-gmd9-1791" edge="1">
          <mxGeometry relative="1" as="geometry">
            <mxPoint x="332.5" y="369" as="sourcePoint" />
            <mxPoint x="280" y="389" as="targetPoint" />
          </mxGeometry>
        </mxCell>
        <mxCell id="X-NRlNJ1EieBE7V-gmd9-1794" value="" style="edgeStyle=none;rounded=0;jumpStyle=none;html=1;shadow=0;labelBackgroundColor=none;startArrow=none;startFill=0;endArrow=classic;endFill=1;jettySize=auto;orthogonalLoop=1;strokeColor=#b85450;strokeWidth=3;fontFamily=Comic Sans MS;fontSize=18;fontColor=#FFFFFF;spacing=5;sketch=1;fillColor=#f8cecc;entryX=1;entryY=0.5;entryDx=0;entryDy=0;exitX=0;exitY=0.5;exitDx=0;exitDy=0;" parent="1" source="1753" target="X-NRlNJ1EieBE7V-gmd9-1790" edge="1">
          <mxGeometry relative="1" as="geometry">
            <mxPoint x="327.5" y="360" as="sourcePoint" />
            <mxPoint x="280" y="390.5" as="targetPoint" />
          </mxGeometry>
        </mxCell>
        <mxCell id="X-NRlNJ1EieBE7V-gmd9-1795" value="" style="edgeStyle=none;rounded=0;jumpStyle=none;html=1;shadow=0;labelBackgroundColor=none;startArrow=none;startFill=0;endArrow=classic;endFill=1;jettySize=auto;orthogonalLoop=1;strokeColor=#b85450;strokeWidth=3;fontFamily=Comic Sans MS;fontSize=18;fontColor=#FFFFFF;spacing=5;sketch=1;fillColor=#f8cecc;entryX=0.75;entryY=1;entryDx=0;entryDy=0;exitX=0.25;exitY=0;exitDx=0;exitDy=0;" parent="1" source="1753" target="X-NRlNJ1EieBE7V-gmd9-1789" edge="1">
          <mxGeometry relative="1" as="geometry">
            <mxPoint x="290" y="330" as="sourcePoint" />
            <mxPoint x="260" y="324" as="targetPoint" />
          </mxGeometry>
        </mxCell>
        <mxCell id="tZK1ywAeQsJ68GABahhb-1780" value="Memory View" style="rounded=1;whiteSpace=wrap;html=1;shadow=0;labelBackgroundColor=none;strokeColor=#2D7600;strokeWidth=1;fillColor=#60a917;fontFamily=Comic Sans MS;fontSize=18;align=center;spacing=5;fontStyle=0;arcSize=7;perimeterSpacing=0;sketch=1;fontColor=#000000;" vertex="1" parent="1">
          <mxGeometry x="980" y="384" width="150" height="60" as="geometry" />
        </mxCell>
        <mxCell id="tZK1ywAeQsJ68GABahhb-1781" value="Ranges" style="rounded=1;whiteSpace=wrap;html=1;shadow=0;labelBackgroundColor=none;strokeColor=#2D7600;strokeWidth=1;fillColor=#60a917;fontFamily=Comic Sans MS;fontSize=18;align=center;spacing=5;fontStyle=0;arcSize=7;perimeterSpacing=0;sketch=1;fontColor=#000000;" vertex="1" parent="1">
          <mxGeometry x="954" y="59.5" width="150" height="60" as="geometry" />
        </mxCell>
        <mxCell id="1778" value="String &quot; &quot;" style="rounded=1;whiteSpace=wrap;html=1;shadow=0;labelBackgroundColor=none;strokeColor=#82b366;strokeWidth=1;fillColor=#d5e8d4;fontFamily=Comic Sans MS;fontSize=18;align=center;spacing=5;fontStyle=0;arcSize=7;perimeterSpacing=0;sketch=1;fillStyle=hachure;gradientColor=none;glass=0;" parent="1" vertex="1">
          <mxGeometry x="816" y="141" width="150" height="60" as="geometry" />
        </mxCell>
        <mxCell id="tZK1ywAeQsJ68GABahhb-1783" value="" style="edgeStyle=none;rounded=1;jumpStyle=none;html=1;shadow=0;labelBackgroundColor=none;startArrow=none;startFill=0;jettySize=auto;orthogonalLoop=1;strokeColor=#82b366;strokeWidth=3;fontFamily=Comic Sans MS;fontSize=18;fontColor=#FFFFFF;spacing=5;fontStyle=1;fillColor=#d5e8d4;sketch=1;entryX=0;entryY=0;entryDx=0;entryDy=0;exitX=0.75;exitY=1;exitDx=0;exitDy=0;" edge="1" parent="1" source="1771" target="tZK1ywAeQsJ68GABahhb-1780">
          <mxGeometry relative="1" as="geometry">
            <mxPoint x="979.998" y="264.9960000000001" as="sourcePoint" />
            <mxPoint x="1020" y="132.01999999999998" as="targetPoint" />
          </mxGeometry>
        </mxCell>
      </root>
    </mxGraphModel>
  </diagram>
</mxfile>
